<?xml version="1.0" encoding="UTF-8"?>
<svg id="Layer_2" data-name="Layer 2" xmlns="http://www.w3.org/2000/svg" viewBox="0 0 200 50.94">
  <defs>
    <style>
      .cls-1 {
        fill: #485eab;
      }

      .cls-2 {
        fill: #fff;
      }
    </style>
  </defs>
  <g id="Layer_1-2" data-name="Layer 1">
    <g>
      <g>
        <path class="cls-2" d="M22.55,50.94c-5.28,0-9.1-11.37-9.1-25.47S17.27,0,22.55,0s9.1,11.37,9.1,25.47-3.82,25.47-9.1,25.47ZM22.55,49.12c3.73,0,7.28-10.55,7.28-23.65S26.28,1.82,22.55,1.82s-7.28,10.55-7.28,23.65,3.55,23.65,7.28,23.65Z"/>
        <path class="cls-2" d="M.53,38.21c-2.73-4.55,5.28-13.55,17.47-20.65,12.19-7.1,23.92-9.37,26.56-4.82s-5.28,13.55-17.47,20.65S3.17,42.76.53,38.21ZM2.08,37.3c1.91,3.27,12.83,1,24.11-5.55,11.28-6.55,18.74-14.83,16.83-18.1s-12.83-1-24.11,5.55C7.63,25.74.17,34.02,2.08,37.3Z"/>
        <path class="cls-2" d="M44.56,38.21c-2.64,4.55-14.46,2.18-26.56-4.82C5.9,26.38-2.19,17.28.53,12.74s14.46-2.18,26.56,4.82,20.2,16.1,17.47,20.65ZM43.02,37.3c1.91-3.27-5.55-11.55-16.83-18.1S3.9,10.37,2.08,13.65s5.55,11.55,16.83,18.1c11.28,6.55,22.29,8.82,24.11,5.55Z"/>
        <path class="cls-1" d="M22.55,30.02c-2.55,0-4.55-2-4.55-4.55s2-4.55,4.55-4.55,4.55,2,4.55,4.55-2,4.55-4.55,4.55ZM8.9,14.1c-1.55,0-2.73-1.18-2.73-2.73s1.18-2.73,2.73-2.73,2.73,1.18,2.73,2.73-1.18,2.73-2.73,2.73ZM17.09,46.39c-1.55,0-2.73-1.18-2.73-2.73s1.18-2.73,2.73-2.73,2.73,1.18,2.73,2.73-1.18,2.73-2.73,2.73ZM42.56,21.83c-1.55,0-2.73-1.18-2.73-2.73s1.18-2.73,2.73-2.73,2.73,1.18,2.73,2.73-1.18,2.73-2.73,2.73Z"/>
      </g>
      <g>
        <path class="cls-2" d="M68.04,13.72c8.13,0,13.54,4.29,13.54,11.5s-5.41,11.5-13.54,11.5h-10.82V13.72h10.82ZM68.04,29.82c2.94,0,4.9-1.83,4.9-4.6s-1.96-4.6-4.9-4.6h-2.32v9.2h2.32Z"/>
        <path class="cls-2" d="M108.27,25.22c0,7.91-4.43,12-12.35,12s-12.34-4.09-12.34-12v-11.5h8.64v11.83c0,2.74,1.34,4.26,3.7,4.26s3.7-1.52,3.7-4.26v-11.83h8.64v11.5Z"/>
        <path class="cls-2" d="M139.36,36.71h-8.5v-9.1l-3.63,4.94v.1h-4.28v-.1l-3.63-4.94v9.1h-8.5V13.72h6.72l7.55,9.2,7.55-9.2h6.72v22.99Z"/>
        <path class="cls-2" d="M170.8,36.71h-8.5v-9.1l-3.63,4.94v.1h-4.28v-.1l-3.63-4.94v9.1h-8.5V13.72h6.72l7.55,9.2,7.55-9.2h6.72v22.99Z"/>
        <path class="cls-2" d="M190.41,36.71h-8.5l-.04-5.61-9.62-17.38h9.4l4.43,8.05,4.5-8.05h9.4l-9.62,17.38.04,5.61Z"/>
      </g>
    </g>
  </g>
</svg>